<?xml version="1.0" standalone="no"?>
<!DOCTYPE svg PUBLIC "-//W3C//DTD SVG 20010904//EN"
 "http://www.w3.org/TR/2001/REC-SVG-20010904/DTD/svg10.dtd">
<svg version="1.0" xmlns="http://www.w3.org/2000/svg"
 width="552.000000pt" height="229.000000pt" viewBox="0 0 552.000000 229.000000"
 preserveAspectRatio="xMidYMid meet">
<metadata>
Created by potrace 1.14, written by Peter Selinger 2001-2017
</metadata>
<g transform="translate(0.000000,229.000000) scale(0.100000,-0.100000)"
fill="#000000" stroke="none">
<path d="M3903 2264 c-20 -20 -24 -31 -19 -56 8 -41 20 -54 54 -61 31 -6 52
-41 52 -83 0 -22 -3 -24 -22 -19 -38 12 -68 35 -78 59 -22 58 -79 74 -118 33
-26 -28 -28 -64 -6 -96 16 -22 21 -23 84 -17 58 6 70 4 91 -14 24 -20 24 -20
4 -36 -20 -15 -53 -15 -118 1 -59 15 -105 -77 -59 -118 38 -35 113 -13 126 36
6 24 43 47 76 47 41 0 6 -72 -47 -98 -64 -30 -68 -109 -6 -133 34 -13 65 0 89
36 16 24 16 29 2 58 -14 29 -14 37 -1 70 8 20 21 37 29 37 35 0 74 -143 74
-273 0 -111 -18 -325 -30 -354 -5 -13 -35 -39 -66 -59 l-57 -37 -166 -8 c-91
-5 -409 -32 -706 -59 -297 -27 -588 -53 -646 -58 l-107 -7 62 68 c98 110 143
176 182 270 21 48 41 90 45 93 5 2 16 -7 25 -21 16 -25 16 -53 -2 -112 -4 -16
1 -29 20 -47 32 -33 75 -34 104 -3 40 42 28 71 -61 142 -14 11 -28 30 -32 43
-6 19 -3 22 25 22 31 0 56 -19 93 -74 35 -51 120 -21 120 42 0 61 -45 88 -109
64 -35 -13 -44 -13 -69 -1 -41 20 -42 37 -3 54 27 11 44 11 77 3 30 -8 49 -8
66 0 48 22 44 105 -7 130 -38 18 -73 1 -98 -47 -21 -43 -45 -61 -79 -61 -15 0
-21 6 -21 20 0 31 28 80 46 80 23 0 64 46 64 73 0 13 -10 33 -23 45 -61 57
-150 -8 -112 -82 18 -34 19 -47 3 -81 -15 -34 -43 -32 -58 6 -10 24 -10 38 0
70 11 32 11 44 0 64 -25 46 -99 52 -127 9 -25 -38 -7 -84 40 -108 43 -20 79
-78 60 -97 -16 -16 -81 15 -92 44 -15 38 -40 57 -76 57 -61 0 -88 -75 -42
-118 26 -25 44 -27 97 -11 30 9 43 8 69 -6 26 -13 30 -19 21 -30 -18 -22 -80
-39 -93 -26 -33 33 -117 -11 -117 -62 0 -33 40 -67 77 -67 32 0 65 30 78 69 6
18 45 41 70 41 23 0 18 -23 -23 -102 -50 -96 -108 -175 -207 -276 l-80 -83
-235 -6 c-287 -7 -284 -7 -935 141 -189 43 -270 57 -427 71 l-67 6 36 47 c47
62 53 81 53 168 0 93 -9 95 -90 16 l-60 -58 0 -74 c0 -41 -4 -81 -9 -89 -6
-10 -49 -19 -133 -28 -139 -15 -307 -46 -346 -65 -33 -16 -42 -48 -14 -48 11
0 128 16 262 35 133 19 246 32 251 29 5 -3 9 -10 9 -16 0 -11 114 -267 160
-358 l28 -56 -32 -69 c-18 -39 -50 -97 -71 -130 -40 -63 -155 -185 -174 -185
-22 0 -12 77 13 107 37 43 38 81 4 113 -29 27 -69 25 -96 -3 -29 -31 -28 -72
3 -101 19 -18 25 -33 25 -64 0 -54 -14 -60 -50 -23 -23 23 -30 38 -30 70 0 31
-6 44 -26 60 -35 27 -59 26 -89 -4 -49 -48 -21 -112 53 -122 31 -4 49 -14 67
-35 14 -16 23 -34 19 -39 -3 -5 -24 -9 -48 -9 -35 0 -46 5 -64 30 -29 39 -72
41 -108 4 -31 -30 -27 -67 12 -101 33 -30 43 -29 90 7 40 30 86 38 114 20 12
-8 10 -14 -15 -40 -22 -23 -38 -30 -66 -30 -48 0 -89 -32 -89 -70 0 -41 30
-73 68 -73 45 0 72 28 72 75 0 31 7 46 30 70 25 25 33 28 45 18 23 -19 18 -53
-15 -101 -37 -55 -39 -91 -4 -118 34 -26 54 -26 88 0 34 27 35 71 1 111 -25
30 -35 91 -16 102 28 18 71 -39 71 -94 0 -63 75 -93 118 -47 45 48 14 117 -52
117 -39 0 -86 33 -86 61 0 30 56 24 109 -11 53 -36 65 -37 96 -5 71 70 -21
159 -100 97 -26 -20 -105 -32 -105 -16 0 4 32 40 71 81 80 85 136 166 169 248
l23 57 81 -80 c45 -44 101 -94 125 -111 l43 -31 -27 -10 c-30 -11 -61 -6 -85
15 -72 63 -166 -38 -97 -103 34 -32 67 -28 107 13 25 26 42 35 67 35 21 0 33
-5 33 -14 0 -23 -40 -66 -61 -66 -23 0 -61 -18 -71 -34 -18 -26 -8 -75 19 -96
52 -41 113 -1 113 75 0 52 34 103 56 84 20 -17 17 -69 -6 -104 -11 -16 -20
-40 -20 -52 0 -34 34 -63 73 -63 42 0 67 26 67 68 0 30 -9 42 -54 80 -20 16
-21 81 -2 88 22 8 66 -25 72 -55 12 -55 27 -80 55 -91 24 -10 33 -10 54 4 76
50 36 147 -55 132 -32 -5 -44 -2 -66 17 -57 50 17 81 88 37 42 -25 59 -25 92
1 36 28 36 80 0 108 -37 29 -62 26 -98 -12 -38 -41 -102 -58 -113 -31 -8 22
48 74 81 74 27 0 66 42 66 70 0 33 -39 70 -74 70 -44 0 -66 -26 -66 -79 0 -46
-30 -101 -55 -101 -26 0 -29 65 -6 103 27 45 27 78 -2 105 -30 29 -62 28 -92
-3 -36 -36 -33 -74 10 -112 28 -25 35 -39 35 -67 0 -45 -12 -46 -73 -5 -94 62
-141 129 -263 373 -100 202 -112 231 -98 239 41 23 268 -20 809 -153 l290 -72
271 5 270 4 -18 -66 c-10 -36 -18 -79 -18 -96 0 -31 50 -148 69 -159 12 -8 52
66 71 131 12 40 11 46 -24 118 -20 43 -36 78 -36 80 0 1 42 5 93 9 50 4 190
16 310 27 l217 20 167 -81 c158 -77 170 -85 256 -170 54 -53 87 -92 82 -100
-11 -18 -66 -1 -103 31 -39 34 -70 37 -100 9 -32 -30 -30 -82 4 -109 35 -27
56 -26 92 4 36 30 99 35 109 8 11 -27 -45 -65 -85 -58 -27 5 -38 1 -63 -25
-25 -24 -30 -36 -25 -58 9 -34 41 -62 73 -62 36 0 73 42 73 84 0 25 7 40 26
55 41 32 54 27 54 -19 0 -32 -6 -45 -30 -67 -55 -48 -30 -133 40 -133 35 0 70
34 70 67 0 13 -10 37 -22 54 -38 51 -23 142 18 108 23 -19 44 -71 44 -108 0
-78 106 -85 133 -8 14 39 -30 86 -79 87 -20 0 -41 9 -58 26 -31 32 -33 50 -6
59 28 9 59 -3 98 -36 38 -34 74 -37 102 -9 26 26 26 81 2 103 -25 23 -74 21
-105 -3 -27 -21 -91 -27 -102 -9 -12 19 35 57 79 64 67 10 74 14 85 46 14 39
-2 74 -42 90 -43 18 -79 -4 -92 -57 -13 -54 -41 -94 -65 -94 -33 0 -27 62 10
100 35 36 39 76 12 111 -26 31 -78 31 -104 0 -24 -31 -23 -50 8 -109 21 -41
24 -56 17 -79 l-10 -28 -124 120 c-120 117 -127 122 -222 160 -53 21 -95 40
-93 42 6 7 111 19 453 53 223 23 329 29 385 24 l78 -7 0 -81 c0 -73 3 -87 29
-127 15 -24 44 -59 63 -77 l35 -33 12 45 c6 25 11 69 11 99 0 57 -10 76 -74
144 l-30 33 40 0 c86 0 321 -33 534 -76 263 -52 551 -121 565 -135 7 -7 0 -19
-20 -35 -25 -21 -37 -24 -75 -19 -40 5 -48 3 -69 -19 -32 -34 -30 -74 3 -103
15 -13 36 -23 47 -23 28 0 69 44 69 74 0 15 12 34 31 50 35 30 47 32 55 11 7
-18 -14 -85 -27 -85 -20 0 -49 -42 -49 -70 0 -35 38 -80 68 -80 11 0 31 9 46
21 30 23 35 71 11 103 -24 32 -17 106 10 106 22 0 45 -48 45 -95 0 -81 70
-123 118 -72 42 44 24 100 -39 118 -57 18 -99 75 -68 94 21 14 76 -5 87 -30
13 -29 66 -58 90 -51 22 7 52 57 52 85 0 54 -75 79 -123 41 -30 -24 -79 -26
-97 -5 -11 13 -9 20 10 40 20 21 33 25 81 25 49 0 59 3 73 25 23 34 20 62 -9
90 -43 44 -107 24 -120 -38 -9 -39 -42 -77 -67 -77 -14 0 -18 8 -18 31 0 23
11 44 40 75 46 50 48 63 17 100 -31 35 -82 38 -109 5 -24 -30 -23 -56 3 -98
17 -28 20 -41 12 -66 -5 -18 -15 -33 -24 -35 -23 -4 -50 51 -43 88 8 40 -10
75 -47 91 -24 9 -33 9 -54 -5 -69 -45 -43 -136 38 -136 28 0 73 -58 57 -74 -5
-5 -119 19 -272 57 -319 80 -492 114 -731 145 -32 4 -58 12 -59 17 -1 6 59 47
133 93 74 45 155 96 181 113 76 48 152 123 198 194 24 36 48 64 54 62 6 -2 14
-20 18 -41 7 -30 4 -43 -12 -63 -28 -36 -26 -77 6 -102 36 -28 60 -26 95 8 38
39 37 57 -10 100 -39 36 -62 93 -42 106 21 12 68 -27 80 -66 29 -96 141 -91
141 7 0 47 -29 68 -83 61 -62 -9 -125 34 -90 61 24 17 73 15 95 -5 27 -24 77
-21 100 6 39 50 9 121 -52 121 -28 0 -37 -6 -85 -62 -21 -25 -85 -25 -85 1 0
28 39 71 64 71 61 0 97 73 59 118 -30 35 -68 38 -99 7 -24 -24 -26 -31 -20
-74 5 -40 3 -53 -15 -74 -35 -46 -59 -31 -59 36 0 18 7 41 15 51 24 31 19 72
-11 95 -34 26 -68 27 -94 1 -33 -33 -26 -75 20 -120 29 -28 40 -47 40 -69 0
-41 -12 -45 -51 -18 -23 15 -36 33 -40 57 -8 38 -40 70 -71 70 -29 0 -68 -45
-68 -78 0 -17 9 -37 24 -51 20 -19 31 -22 68 -16 38 6 49 3 73 -17 32 -28 28
-43 -15 -51 -21 -5 -45 0 -76 15 -41 21 -47 21 -72 7 -22 -12 -28 -23 -30 -59
-4 -51 13 -70 63 -70 23 0 40 9 63 34 28 31 86 56 99 42 11 -10 -90 -147 -147
-198 -55 -50 -227 -156 -279 -173 l-24 -7 9 118 c16 210 10 319 -20 400 -33
91 -34 118 -3 109 29 -9 44 -24 65 -65 46 -91 166 -36 127 58 -16 38 -47 48
-96 32 -30 -10 -44 -10 -68 0 -41 17 -39 38 6 56 34 15 40 14 64 0 36 -21 51
-20 83 5 47 37 30 110 -29 125 -31 8 -53 -6 -85 -52 -28 -42 -73 -65 -91 -47
-17 17 18 82 47 89 29 7 64 49 64 76 0 27 -45 68 -75 68 -14 0 -34 -9 -46 -21
-19 -19 -20 -28 -14 -83 5 -53 3 -66 -13 -86 -17 -20 -22 -22 -35 -11 -24 19
-29 63 -13 101 16 41 8 70 -26 94 -32 23 -55 20 -85 -10z"/>
</g>
</svg>
